<?xml version="1.0" encoding="UTF-8" standalone="no"?>
<!DOCTYPE svg PUBLIC "-//W3C//DTD SVG 1.1//EN" "http://www.w3.org/Graphics/SVG/1.1/DTD/svg11.dtd">
<svg width="100%" height="100%" viewBox="0 0 448 512" version="1.1" xmlns="http://www.w3.org/2000/svg" xmlns:xlink="http://www.w3.org/1999/xlink" xml:space="preserve" xmlns:serif="http://www.serif.com/" style="fill-rule:evenodd;clip-rule:evenodd;stroke-linejoin:round;stroke-miterlimit:1.41421;">
    <path d="M448,56.7L448,455.2C448,468.9 436.9,479.9 423.3,479.9L309.1,479.9L309.1,306.5L367.3,306.5L376,238.9L309,238.9L309,195.7C309,176.1 314.4,162.8 342.5,162.8L378.3,162.8L378.3,102.3C372.1,101.5 350.9,99.6 326.1,99.6C274.5,99.6 239.1,131.1 239.1,189L239.1,238.9L180.7,238.9L180.7,306.5L239.1,306.5L239.1,480L24.7,480C11.1,480 0,468.9 0,455.3L0,56.7C0,43.1 11.1,32 24.7,32L423.2,32C436.9,32 448,43.1 448,56.7Z" style="fill:rgb(59,89,152);fill-rule:nonzero;"/>
</svg>
